<svg width="32" height="32" viewBox="0 0 32 32" version="1.1" xmlns="http://www.w3.org/2000/svg" xmlns:xlink="http://www.w3.org/1999/xlink">
<title>cart</title>
<desc>Created using Figma</desc>
<g id="Canvas" transform="translate(-14170 8199)">
<g id="cart">
<g id="Vector">
<use xlink:href="#path0_fill" transform="translate(14178.1 -8173.41)" fill="#FFFFFF"/>
</g>
<g id="Vector">
<use xlink:href="#path1_fill" transform="translate(14193.6 -8173.41)" fill="#FFFFFF"/>
</g>
<g id="Vector">
<use xlink:href="#path2_fill" transform="translate(14170 -8199)" fill="#FFFFFF"/>
</g>
</g>
</g>
<defs>
<path id="path0_fill" d="M 3.26034 6.75179e-08C 2.61551 6.75179e-08 1.98516 0.187888 1.449 0.539903C 0.912835 0.891919 0.494948 1.39225 0.248181 1.97763C 0.00141304 2.56301 -0.0631531 3.20715 0.0626479 3.82858C 0.188449 4.45002 0.498966 5.02084 0.954934 5.46887C 1.4109 5.91691 1.99184 6.22202 2.62428 6.34563C 3.25673 6.46924 3.91227 6.4058 4.50802 6.16333C 5.10377 5.92085 5.61297 5.51024 5.97122 4.98341C 6.32947 4.45658 6.52069 3.8372 6.52069 3.20359C 6.52069 2.35395 6.17719 1.5391 5.56576 0.938311C 4.95432 0.337521 4.12504 6.75179e-08 3.26034 6.75179e-08Z"/>
<path id="path1_fill" d="M 3.26034 6.75179e-08C 2.61551 6.75179e-08 1.98516 0.187888 1.449 0.539903C 0.912834 0.891919 0.494947 1.39225 0.24818 1.97763C 0.00141186 2.56301 -0.0631526 3.20715 0.0626484 3.82858C 0.18845 4.45002 0.498966 5.02084 0.954933 5.46887C 1.4109 5.91691 1.99184 6.22202 2.62428 6.34563C 3.25673 6.46924 3.91228 6.4058 4.50803 6.16333C 5.10378 5.92085 5.61297 5.51024 5.97122 4.98341C 6.32947 4.45658 6.52069 3.8372 6.52069 3.20359C 6.52069 2.35395 6.17719 1.5391 5.56576 0.938311C 4.95432 0.337521 4.12504 6.75179e-08 3.26034 6.75179e-08Z"/>
<path id="path2_fill" d="M 31.964 6.25674C 31.964 2.71686 28.3614 2.71686 24.2184 2.96465C 17.9139 3.37174 9.96116 3.99122 9.96116 3.99122C 9.96116 3.99122 9.63693 0 5.66507 0L 1.06276 0C 1.06276 0 0 0.123896 0 1.72569C 0 3.32749 0.990712 3.37174 0.990712 3.37174L 4.50324 3.37174C 9.00647 3.37174 7.89868 23.1774 7.89868 23.1774C 7.89868 23.1774 22.5252 22.8853 22.7413 22.9561C 22.9575 23.0269 32 23.6641 32 6.25674"/>
</defs>
</svg>
