<svg width="31" height="32" viewBox="0 0 31 32" version="1.1" xmlns="http://www.w3.org/2000/svg" xmlns:xlink="http://www.w3.org/1999/xlink">
<title>user-picture</title>
<desc>Created using Figma</desc>
<g id="Canvas" transform="translate(-14171 8259)">
<g id="user-picture">
<g id="Group">
<g id="Vector">
<use xlink:href="#path0_fill" transform="matrix(-1 0 0 1 14202 -8259)" fill="#BDBDBD"/>
</g>
</g>
</g>
</g>
<defs>
<path id="path0_fill" d="M 30.6614 27.8891L 22.5916 23.6977L 22.2188 22.554C 22.1073 22.1708 21.9307 21.7876 21.5675 21.6869C 21.4521 21.655 21.3061 21.4482 21.2873 21.3037L 21.0719 19.0798C 21.06 18.8893 21.1378 18.7184 21.2402 18.5984C 21.8584 17.8708 22.1954 17.0281 22.338 16.0646C 22.4097 15.5802 22.6664 15.1334 22.7982 14.6563L 23.3156 11.997C 23.3696 11.6478 23.3591 11.3787 22.9618 11.2433C 22.8521 11.2058 22.7568 11.0275 22.7568 10.76L 22.762 5.74237C 22.6776 4.52793 22.0229 3.58884 21.0943 2.93522C 19.3204 1.68655 16.1439 2.26557 17.1806 0.228783C 17.2419 0.108906 17.2223 -0.0993678 16.7962 0.0545996C 15.206 0.629217 10.9704 2.14756 9.90634 2.93522C 8.95403 3.64009 8.32315 4.52793 8.23861 5.74237L 8.24385 10.76C 8.24385 10.9808 8.14853 11.2058 8.03878 11.2433C 7.64131 11.3786 7.6309 11.6478 7.68491 11.997L 8.20246 14.6563C 8.33401 15.1334 8.59081 15.5802 8.66259 16.0646C 8.80501 17.0281 9.14224 17.8708 9.76036 18.5984C 9.86267 18.7184 9.94052 18.8893 9.92867 19.0798L 9.71327 21.3037C 9.69436 21.4482 9.54814 21.655 9.433 21.6869C 9.06971 21.7876 8.89304 22.1708 8.78154 22.554L 8.40868 23.6977L 0.338528 27.8891C 0.130262 27.9972 -2.49179e-08 28.2097 -2.49179e-08 28.4409L -2.49179e-08 31.3758C -2.49179e-08 31.7205 0.284677 32 0.635738 32L 30.3643 32C 30.7153 32 31 31.7205 31 31.3758L 31 28.4409C 30.9998 28.2097 30.8696 27.9972 30.6614 27.8891Z"/>
</defs>
</svg>
